<svg width="156" height="103" viewBox="0 0 156 103" fill="none" xmlns="http://www.w3.org/2000/svg">
<g filter="url(#filter0_d_109_45570)">
<g clip-path="url(#clip0_109_45570)">
<rect x="4" width="148" height="95" rx="8" fill="#00AB06"/>
<g opacity="0.5" clip-path="url(#clip1_109_45570)">
<path d="M49.3379 51.6791C36.3171 51.6791 25.7635 62.2328 25.7635 75.2535C25.7635 88.2743 36.3171 98.8279 49.3379 98.8279C62.3586 98.8279 72.9123 88.2743 72.9123 75.2535C72.9123 62.2328 62.3586 51.6791 49.3379 51.6791ZM44.3564 71.0078L55.423 72.8539C59.7025 73.566 62.8109 77.2346 62.8109 81.5715C62.8109 86.445 58.8486 90.4072 53.9751 90.4072H52.7095V93.7755H45.973V90.4072C40.4009 90.4072 35.8683 85.8746 35.8683 80.3025H42.6048C42.6048 82.1587 44.1168 83.6708 45.973 83.6708H53.9751C55.1328 83.6708 56.0778 82.7291 56.0778 81.5681C56.0778 80.5354 55.3386 79.6646 54.3228 79.4959L43.2561 77.6497C38.98 76.9376 35.8716 73.269 35.8716 68.9321C35.8716 64.0586 39.8373 60.0964 44.7074 60.0964H45.973V56.7281H52.7095V60.0964C58.2816 60.0964 62.8143 64.629 62.8143 70.2011H56.0778C56.0778 68.3449 54.5691 66.8329 52.7095 66.8329H44.7074C43.5464 66.8329 42.6048 67.7745 42.6048 68.9355C42.6048 69.9683 43.3439 70.839 44.3598 71.0078H44.3564ZM-7.91225 58.5877V51.8512C-7.91225 59.2897 3.39738 65.3209 17.3463 65.3209C18.5106 65.3209 19.6548 65.2736 20.7753 65.1926C20.0159 67.3526 19.4691 69.6105 19.216 71.9595C18.5883 71.9831 17.9875 72.0574 17.3463 72.0574C3.394 72.0574 -7.91225 66.0262 -7.91225 58.5877ZM-7.91225 31.4696C-7.91225 24.0311 3.394 18 17.3463 18C31.2985 18 42.6048 24.0311 42.6048 31.4696C42.6048 38.9081 31.2951 44.9392 17.3463 44.9392C3.39738 44.9392 -7.91225 38.9115 -7.91225 31.4696ZM-7.91225 44.9426V38.2061C-7.91225 45.6446 3.39738 51.6758 17.3463 51.6758C31.2951 51.6758 42.6048 45.6446 42.6048 38.2061V44.9426C42.6048 45.2126 42.5575 45.4725 42.5305 45.7391C35.1325 47.4401 28.7774 51.8344 24.5485 57.852C22.2636 58.2131 19.8505 58.4156 17.3463 58.4156C3.394 58.4123 -7.91225 52.3811 -7.91225 44.9426ZM28.828 97.5218C25.3821 98.4634 21.484 99 17.3463 99C3.394 99 -7.91225 92.9689 -7.91225 85.5304V78.7939C-7.91225 86.2324 3.39738 92.2635 17.3463 92.2635C19.6379 92.2635 21.8283 92.0644 23.9376 91.7572C25.3214 93.8835 26.9718 95.8106 28.828 97.5218ZM-7.91225 72.0574V65.3209C-7.91225 72.7594 3.39738 78.7905 17.3463 78.7905C17.9909 78.7905 18.6085 78.7298 19.2396 78.7028C19.5029 81.0112 20.0395 83.232 20.7921 85.3549C19.6581 85.4393 18.5241 85.5236 17.3463 85.5236C3.394 85.5304 -7.91225 79.4959 -7.91225 72.0574Z" fill="white"/>
</g>
<path d="M116.41 28.5586C116.449 28.5586 116.469 28.5742 116.469 28.6055V29.9414C116.469 29.9805 116.449 30 116.41 30H112.771C111.662 30 110.801 29.7422 110.188 29.2266C109.574 28.707 109.268 27.9844 109.268 27.0586C109.268 26.4688 109.408 25.9453 109.689 25.4883C109.971 25.0312 110.373 24.6797 110.896 24.4336C111.424 24.1836 112.049 24.0586 112.771 24.0586H113.105V23.4727H114.91V28.5586H116.41ZM113.123 28.5586V25.5H112.807C112.26 25.5 111.838 25.6348 111.541 25.9043C111.248 26.1738 111.102 26.5625 111.102 27.0703C111.102 27.5469 111.246 27.9141 111.535 28.1719C111.824 28.4297 112.24 28.5586 112.783 28.5586H113.123ZM112.004 22.7168C111.758 22.7168 111.562 22.6406 111.418 22.4883C111.273 22.332 111.201 22.1211 111.201 21.8555C111.201 21.5859 111.271 21.375 111.412 21.2227C111.557 21.0664 111.754 20.9883 112.004 20.9883C112.25 20.9883 112.443 21.0645 112.584 21.2168C112.725 21.3691 112.795 21.582 112.795 21.8555C112.795 22.1289 112.723 22.3418 112.578 22.4941C112.434 22.6426 112.242 22.7168 112.004 22.7168ZM114.043 22.7168C113.797 22.7168 113.602 22.6406 113.457 22.4883C113.312 22.332 113.24 22.1211 113.24 21.8555C113.24 21.5859 113.311 21.375 113.451 21.2227C113.596 21.0664 113.793 20.9883 114.043 20.9883C114.293 20.9883 114.488 21.0664 114.629 21.2227C114.77 21.375 114.84 21.5859 114.84 21.8555C114.84 22.1211 114.766 22.332 114.617 22.4883C114.473 22.6406 114.281 22.7168 114.043 22.7168ZM121.285 28.5586V25.5H120.969C120.43 25.5 120.012 25.6348 119.715 25.9043C119.418 26.1699 119.27 26.5586 119.27 27.0703C119.27 27.5469 119.412 27.9141 119.697 28.1719C119.986 28.4297 120.402 28.5586 120.945 28.5586H121.285ZM118.01 28.5586C117.623 28.1016 117.43 27.5742 117.43 26.9766C117.43 26.082 117.738 25.373 118.355 24.8496C118.973 24.3223 119.832 24.0586 120.934 24.0586H123.072V30H116.293C116.254 30 116.234 29.9805 116.234 29.9414V28.6055C116.234 28.5742 116.254 28.5586 116.293 28.5586H118.01ZM120.805 23.0273C120.555 23.0273 120.357 22.9512 120.213 22.7988C120.068 22.6426 119.996 22.4316 119.996 22.166C119.996 21.8965 120.066 21.6855 120.207 21.5332C120.352 21.377 120.551 21.2988 120.805 21.2988C121.047 21.2988 121.238 21.375 121.379 21.5273C121.523 21.6797 121.596 21.8926 121.596 22.166C121.596 22.4316 121.521 22.6426 121.373 22.7988C121.229 22.9512 121.039 23.0273 120.805 23.0273ZM128.586 28.5586C128.625 28.5586 128.645 28.5742 128.645 28.6055V29.9414C128.645 29.9805 128.625 30 128.586 30H125.299V20.8828H127.086V28.5586H128.586ZM136.109 28.5586V27.082C136.109 26.5 135.975 26.0723 135.705 25.7988C135.439 25.5215 135.027 25.3828 134.469 25.3828C133.391 25.3828 132.459 26.1289 131.674 27.6211V28.5586H136.109ZM128.469 30C128.43 30 128.41 29.9805 128.41 29.9414V28.6055C128.41 28.5742 128.43 28.5586 128.469 28.5586H129.881V24.0586H131.674V26.1621C132.404 24.6816 133.488 23.9414 134.926 23.9414C135.906 23.9414 136.646 24.2012 137.146 24.7207C137.646 25.2363 137.896 26.0352 137.896 27.1172V30H128.469ZM134.182 23.0273C133.932 23.0273 133.734 22.9512 133.59 22.7988C133.445 22.6426 133.373 22.4316 133.373 22.166C133.373 21.8965 133.443 21.6855 133.584 21.5332C133.729 21.377 133.928 21.2988 134.182 21.2988C134.424 21.2988 134.615 21.375 134.756 21.5273C134.9 21.6797 134.973 21.8926 134.973 22.166C134.973 22.4316 134.898 22.6426 134.75 22.7988C134.605 22.9512 134.416 23.0273 134.182 23.0273ZM140.006 20.8828H141.793V30H140.006V20.8828ZM96.8691 47C96.1309 47 95.5469 46.7852 95.1172 46.3555C94.6914 45.9258 94.4785 45.3359 94.4785 44.5859C94.4785 44.2852 94.5137 43.9648 94.584 43.625C94.6543 43.2812 94.748 42.9902 94.8652 42.752H96.4473C96.3262 43.2715 96.2656 43.7949 96.2656 44.3223C96.2656 44.6934 96.3691 44.9922 96.5762 45.2188C96.7832 45.4453 97.0566 45.5586 97.3965 45.5586H101.293V41.0586H103.086V47H96.8691ZM97.7422 41.0527C97.4961 41.0527 97.3008 40.9766 97.1562 40.8242C97.0117 40.668 96.9395 40.457 96.9395 40.1914C96.9395 39.9219 97.0098 39.7109 97.1504 39.5586C97.2949 39.4023 97.4922 39.3242 97.7422 39.3242C97.9883 39.3242 98.1816 39.4004 98.3223 39.5527C98.4629 39.7051 98.5332 39.918 98.5332 40.1914C98.5332 40.4648 98.4609 40.6777 98.3164 40.8301C98.1719 40.9785 97.9805 41.0527 97.7422 41.0527ZM99.7812 41.0527C99.5352 41.0527 99.3398 40.9766 99.1953 40.8242C99.0508 40.668 98.9785 40.457 98.9785 40.1914C98.9785 39.9219 99.0488 39.7109 99.1895 39.5586C99.334 39.4023 99.5312 39.3242 99.7812 39.3242C100.031 39.3242 100.227 39.4023 100.367 39.5586C100.508 39.7109 100.578 39.9219 100.578 40.1914C100.578 40.457 100.504 40.668 100.355 40.8242C100.211 40.9766 100.02 41.0527 99.7812 41.0527ZM105.307 37.8828H107.094V47H105.307V37.8828ZM108.84 45.5586H112.848C112.684 44.8203 112.482 44.2246 112.244 43.7715C112.01 43.3145 111.709 42.9219 111.342 42.5938C110.979 42.2617 110.533 41.9863 110.006 41.7676L110.68 40.0859C111.75 40.5156 112.607 41.1797 113.252 42.0781C113.9 42.9727 114.369 44.1484 114.658 45.6055V47H108.84V45.5586ZM116.65 37.8828H118.438V47H116.65V37.8828ZM125.439 45.5586C125.479 45.5586 125.498 45.5742 125.498 45.6055V46.9414C125.498 46.9805 125.479 47 125.439 47H123.881V47.1934C123.881 48.0176 123.652 48.6719 123.195 49.1562C122.742 49.6406 122.135 49.8828 121.373 49.8828C120.963 49.8828 120.586 49.834 120.242 49.7363C119.902 49.6387 119.543 49.4629 119.164 49.209L119.885 48.043C120.096 48.1758 120.281 48.2676 120.441 48.3184C120.605 48.3691 120.801 48.3945 121.027 48.3945C121.348 48.3945 121.605 48.2715 121.801 48.0254C121.996 47.7832 122.094 47.4766 122.094 47.1055V41.0586H123.881V45.5586H125.439ZM125.328 47C125.289 47 125.27 46.9805 125.27 46.9414V45.6055C125.27 45.5742 125.289 45.5586 125.328 45.5586H127.426V41.0586H129.213V47H125.328ZM126.295 50C126.049 50 125.854 49.9219 125.709 49.7656C125.564 49.6133 125.492 49.4043 125.492 49.1387C125.492 48.8691 125.562 48.6562 125.703 48.5C125.848 48.3477 126.045 48.2715 126.295 48.2715C126.541 48.2715 126.734 48.3477 126.875 48.5C127.016 48.6523 127.086 48.8652 127.086 49.1387C127.086 49.4121 127.014 49.623 126.869 49.7715C126.725 49.9238 126.533 50 126.295 50ZM128.334 50C128.088 50 127.893 49.9219 127.748 49.7656C127.604 49.6133 127.531 49.4043 127.531 49.1387C127.531 48.8691 127.602 48.6562 127.742 48.5C127.887 48.3477 128.084 48.2715 128.334 48.2715C128.584 48.2715 128.779 48.3477 128.92 48.5C129.061 48.6562 129.131 48.8691 129.131 49.1387C129.131 49.4043 129.057 49.6133 128.908 49.7656C128.764 49.9219 128.572 50 128.334 50ZM130.777 45.5586H132.951L131.404 39.5H133.273L134.703 45.5586H134.785C135.184 45.5586 135.475 45.4492 135.658 45.2305C135.846 45.0078 135.939 44.6543 135.939 44.1699V37.8828H137.727V44.3105C137.727 45.127 137.5 45.7793 137.047 46.2676C136.598 46.7559 135.977 47 135.184 47H130.777V45.5586ZM140.006 37.8828H141.793V47H140.006V37.8828Z" fill="white"/>
<path d="M96.834 62C96.8281 62.4746 96.7051 62.833 96.4648 63.0752C96.2246 63.3193 95.8496 63.4414 95.3398 63.4414H94.9092C94.5342 63.4414 94.2393 63.3115 94.0244 63.0518C93.8096 62.792 93.7021 62.4395 93.7021 61.9941C93.7021 61.5156 93.7842 61.0732 93.9482 60.667H94.4463C94.3096 61.0127 94.2412 61.4434 94.2412 61.959C94.2412 62.2832 94.3086 62.5332 94.4434 62.709C94.5781 62.8848 94.7715 62.9727 95.0234 62.9727H95.3164C95.6641 62.9727 95.9189 62.8936 96.0811 62.7354C96.2432 62.5771 96.3242 62.3359 96.3242 62.0117V59.0908H96.834V61.5312H97.4932C97.5146 61.5312 97.5254 61.5391 97.5254 61.5547V61.9707C97.5254 61.9902 97.5146 62 97.4932 62H96.834ZM95.2812 59.0879C95.1777 59.0879 95.0957 59.0566 95.0352 58.9941C94.9746 58.9316 94.9443 58.8428 94.9443 58.7275C94.9443 58.6123 94.9736 58.5234 95.0322 58.4609C95.0928 58.3984 95.1758 58.3672 95.2812 58.3672C95.3887 58.3672 95.4717 58.4004 95.5303 58.4668C95.5889 58.5312 95.6182 58.6182 95.6182 58.7275C95.6182 58.8369 95.5889 58.9248 95.5303 58.9912C95.4717 59.0557 95.3887 59.0879 95.2812 59.0879ZM97.4375 62C97.418 62 97.4082 61.9902 97.4082 61.9707V61.5547C97.4082 61.5391 97.418 61.5312 97.4375 61.5312H98.1816C98.0332 61.1445 97.959 60.8027 97.959 60.5059C97.959 60.1484 98.0312 59.8301 98.1758 59.5508C98.3223 59.4277 98.4902 59.3301 98.6797 59.2578C98.8691 59.1855 99.0664 59.1494 99.2715 59.1494C99.5215 59.1494 99.7412 59.2051 99.9307 59.3164C100.12 59.4258 100.266 59.582 100.367 59.7852C100.469 59.9883 100.52 60.2188 100.52 60.4766C100.52 60.791 100.462 61.0625 100.347 61.291C100.233 61.5195 100.072 61.6953 99.8633 61.8184C99.6562 61.9395 99.4189 62 99.1514 62H97.4375ZM98.498 60.4033C98.498 60.5889 98.5146 60.7715 98.5479 60.9512C98.5811 61.1289 98.6406 61.3223 98.7266 61.5312H99.1514C99.4189 61.5312 99.624 61.4404 99.7666 61.2588C99.9092 61.0771 99.9805 60.8145 99.9805 60.4707C99.9805 60.2188 99.9111 60.0127 99.7725 59.8525C99.6357 59.6924 99.4688 59.6123 99.2715 59.6123C99.1445 59.6123 99.0195 59.6348 98.8965 59.6797C98.7754 59.7246 98.667 59.7842 98.5713 59.8584C98.5381 59.9424 98.5176 60.0283 98.5098 60.1162C98.502 60.2021 98.498 60.2979 98.498 60.4033ZM104.463 62C104.117 62 103.844 61.8965 103.643 61.6895C103.441 61.4805 103.341 61.1963 103.341 60.8369C103.341 60.7041 103.354 60.5508 103.382 60.377C103.411 60.2031 103.447 60.0557 103.49 59.9346H103.971C103.91 60.2236 103.88 60.5098 103.88 60.793C103.88 61.0117 103.932 61.1895 104.035 61.3262C104.139 61.4629 104.275 61.5312 104.445 61.5312H106.599V59.0908H107.108V61.5312H107.908C107.928 61.5312 107.938 61.5391 107.938 61.5547V61.9707C107.938 61.9902 107.928 62 107.908 62H104.463ZM105.453 63.2012C105.35 63.2012 105.268 63.1699 105.207 63.1074C105.146 63.0449 105.116 62.9561 105.116 62.8408C105.116 62.7256 105.146 62.6367 105.204 62.5742C105.265 62.5117 105.348 62.4805 105.453 62.4805C105.561 62.4805 105.644 62.5127 105.702 62.5771C105.761 62.6436 105.79 62.7314 105.79 62.8408C105.79 62.9502 105.761 63.0371 105.702 63.1016C105.644 63.168 105.561 63.2012 105.453 63.2012ZM111.761 62C111.581 62 111.415 61.9707 111.263 61.9121C111.112 61.8516 110.956 61.7412 110.794 61.5811C110.706 61.7041 110.589 61.8047 110.442 61.8828C110.296 61.9609 110.121 62 109.918 62H107.85C107.83 62 107.82 61.9902 107.82 61.9707V61.5547C107.82 61.5391 107.83 61.5312 107.85 61.5312H108.708V59.5566H109.218V61.5312H109.865C110.059 61.5312 110.209 61.4678 110.316 61.3408C110.424 61.2119 110.478 61.0439 110.478 60.8369V59.5566H110.987V60.998L110.981 61.0654C111.081 61.2373 111.189 61.3584 111.307 61.4287C111.426 61.4971 111.577 61.5312 111.761 61.5312H112.127V59.0908H112.637V61.5312H113.439C113.461 61.5312 113.472 61.5391 113.472 61.5547V61.9707C113.472 61.9902 113.461 62 113.439 62H111.761ZM113.381 62C113.361 62 113.352 61.9902 113.352 61.9707V61.5547C113.352 61.5391 113.361 61.5312 113.381 61.5312H114.354V59.0908H114.887V61.5312H115.786C115.806 61.5312 115.815 61.5391 115.815 61.5547V61.9707C115.815 61.9902 115.806 62 115.786 62H113.381ZM114.096 58.5195C114.002 58.5195 113.922 58.4912 113.855 58.4346C113.791 58.3779 113.759 58.2861 113.759 58.1592C113.759 58.0322 113.791 57.9404 113.855 57.8838C113.922 57.8271 114.002 57.7988 114.096 57.7988C114.197 57.7988 114.278 57.8301 114.339 57.8926C114.399 57.9531 114.43 58.042 114.43 58.1592C114.43 58.2744 114.399 58.3633 114.339 58.4258C114.28 58.4883 114.199 58.5195 114.096 58.5195ZM115.133 58.5195C115.029 58.5195 114.947 58.4883 114.887 58.4258C114.826 58.3633 114.796 58.2744 114.796 58.1592C114.796 58.0439 114.825 57.9551 114.884 57.8926C114.944 57.8301 115.027 57.7988 115.133 57.7988C115.24 57.7988 115.323 57.832 115.382 57.8984C115.44 57.9629 115.47 58.0498 115.47 58.1592C115.47 58.2686 115.44 58.3564 115.382 58.4229C115.323 58.4873 115.24 58.5195 115.133 58.5195ZM115.73 62C115.711 62 115.701 61.9902 115.701 61.9707V61.5547C115.701 61.5391 115.711 61.5312 115.73 61.5312H118.256V60.4268C118.256 60.1279 118.166 59.9082 117.986 59.7676C117.807 59.627 117.528 59.5566 117.151 59.5566H116.132V59.0674C116.261 58.7979 116.438 58.5332 116.665 58.2734C116.892 58.0117 117.145 57.7793 117.424 57.5762C117.705 57.3711 117.979 57.2178 118.244 57.1162L118.435 57.5732C118.067 57.7178 117.708 57.9375 117.356 58.2324C117.005 58.5254 116.763 58.8115 116.63 59.0908H117.151C117.675 59.0908 118.074 59.1982 118.35 59.4131C118.627 59.6279 118.766 59.9365 118.766 60.3389V62H115.73ZM119.817 57.4414H120.351V62H119.817V57.4414ZM123.591 57.4414H124.124V61.5312H124.915C124.937 61.5312 124.947 61.5391 124.947 61.5547V61.9707C124.947 61.9902 124.937 62 124.915 62H123.591V57.4414ZM124.859 62C124.84 62 124.83 61.9902 124.83 61.9707V61.5547C124.83 61.5391 124.84 61.5312 124.859 61.5312H125.604C125.455 61.1445 125.381 60.8027 125.381 60.5059C125.381 60.1484 125.453 59.8301 125.598 59.5508C125.744 59.4277 125.912 59.3301 126.102 59.2578C126.291 59.1855 126.488 59.1494 126.693 59.1494C126.943 59.1494 127.163 59.2051 127.353 59.3164C127.542 59.4258 127.688 59.582 127.789 59.7852C127.891 59.9883 127.941 60.2188 127.941 60.4766C127.941 60.791 127.884 61.0625 127.769 61.291C127.655 61.5195 127.494 61.6953 127.285 61.8184C127.078 61.9395 126.841 62 126.573 62H124.859ZM125.92 60.4033C125.92 60.5889 125.937 60.7715 125.97 60.9512C126.003 61.1289 126.062 61.3223 126.148 61.5312H126.573C126.841 61.5312 127.046 61.4404 127.188 61.2588C127.331 61.0771 127.402 60.8145 127.402 60.4707C127.402 60.2188 127.333 60.0127 127.194 59.8525C127.058 59.6924 126.891 59.6123 126.693 59.6123C126.566 59.6123 126.441 59.6348 126.318 59.6797C126.197 59.7246 126.089 59.7842 125.993 59.8584C125.96 59.9424 125.939 60.0283 125.932 60.1162C125.924 60.2021 125.92 60.2979 125.92 60.4033ZM135.424 61.5312V59.5566H135.166C134.811 59.5566 134.533 59.6494 134.334 59.835C134.137 60.0205 134.038 60.2822 134.038 60.6201C134.038 61.2275 134.312 61.5312 134.861 61.5312H135.424ZM131.885 62C131.539 62 131.266 61.8965 131.064 61.6895C130.863 61.4805 130.763 61.1963 130.763 60.8369C130.763 60.7041 130.776 60.5508 130.804 60.377C130.833 60.2031 130.869 60.0557 130.912 59.9346H131.393C131.332 60.2236 131.302 60.5098 131.302 60.793C131.302 61.0117 131.354 61.1895 131.457 61.3262C131.561 61.4629 131.697 61.5312 131.867 61.5312H133.818C133.725 61.4297 133.648 61.2959 133.59 61.1299C133.533 60.9639 133.505 60.7959 133.505 60.626C133.505 60.1572 133.651 59.7842 133.944 59.5068C134.239 59.2295 134.641 59.0908 135.148 59.0908H135.934V61.5312H136.596C136.615 61.5312 136.625 61.5391 136.625 61.5547V61.9707C136.625 61.9902 136.615 62 136.596 62H131.885ZM134.8 58.5195C134.696 58.5195 134.614 58.4883 134.554 58.4258C134.493 58.3633 134.463 58.2744 134.463 58.1592C134.463 58.0439 134.492 57.9551 134.551 57.8926C134.611 57.8301 134.694 57.7988 134.8 57.7988C134.907 57.7988 134.99 57.832 135.049 57.8984C135.107 57.9629 135.137 58.0498 135.137 58.1592C135.137 58.2686 135.107 58.3564 135.049 58.4229C134.99 58.4873 134.907 58.5195 134.8 58.5195ZM136.537 62C136.518 62 136.508 61.9902 136.508 61.9707V61.5547C136.508 61.5391 136.518 61.5312 136.537 61.5312H137.27V59.2695H137.779V60.3799C137.967 59.9326 138.202 59.5957 138.485 59.3691C138.769 59.1426 139.087 59.0293 139.44 59.0293C139.894 59.0293 140.235 59.1523 140.466 59.3984C140.698 59.6445 140.814 60.0293 140.814 60.5527V62H136.537ZM140.305 61.5312V60.5791C140.305 60.21 140.224 59.9385 140.062 59.7646C139.901 59.5908 139.658 59.5039 139.332 59.5039C138.717 59.5039 138.199 60.0156 137.779 61.0391V61.5312H140.305ZM139.273 58.5195C139.17 58.5195 139.088 58.4883 139.027 58.4258C138.967 58.3633 138.937 58.2744 138.937 58.1592C138.937 58.0439 138.966 57.9551 139.024 57.8926C139.085 57.8301 139.168 57.7988 139.273 57.7988C139.381 57.7988 139.464 57.832 139.522 57.8984C139.581 57.9629 139.61 58.0498 139.61 58.1592C139.61 58.2686 139.581 58.3564 139.522 58.4229C139.464 58.4873 139.381 58.5195 139.273 58.5195ZM141.866 57.4414H142.399V62H141.866V57.4414ZM101.34 70C100.977 70 100.698 69.9072 100.505 69.7217C100.313 69.5361 100.218 69.2705 100.218 68.9248C100.218 68.6592 100.268 68.3896 100.367 68.1162H100.818C100.758 68.4014 100.728 68.6572 100.728 68.8838C100.728 69.085 100.78 69.2432 100.886 69.3584C100.993 69.4736 101.139 69.5312 101.322 69.5312H103.476V65.4414H103.985V69.5312H104.785C104.805 69.5312 104.814 69.5391 104.814 69.5547V69.9707C104.814 69.9902 104.805 70 104.785 70H101.34ZM101.545 67.8584L101.826 67.8174C101.686 67.7256 101.615 67.5996 101.615 67.4395C101.615 67.2695 101.671 67.1367 101.782 67.041C101.894 66.9453 102.042 66.8975 102.228 66.8975C102.376 66.8975 102.508 66.9277 102.623 66.9883L102.535 67.2578C102.451 67.209 102.351 67.1846 102.233 67.1846C102.146 67.1846 102.071 67.21 102.011 67.2607C101.952 67.3096 101.923 67.3867 101.923 67.4922C101.923 67.5605 101.939 67.6191 101.973 67.668C102.008 67.7148 102.051 67.75 102.102 67.7734C102.148 67.7637 102.246 67.749 102.395 67.7295C102.543 67.708 102.646 67.6973 102.702 67.6973V67.9902C102.669 67.9902 102.581 67.998 102.438 68.0137C102.296 68.0273 102.19 68.0391 102.122 68.0488C101.776 68.0977 101.584 68.126 101.545 68.1338V67.8584ZM104.727 70C104.707 70 104.697 69.9902 104.697 69.9707V69.5547C104.697 69.5391 104.707 69.5312 104.727 69.5312H105.471C105.322 69.1445 105.248 68.8027 105.248 68.5059C105.248 68.1484 105.32 67.8301 105.465 67.5508C105.611 67.4277 105.779 67.3301 105.969 67.2578C106.158 67.1855 106.355 67.1494 106.561 67.1494C106.811 67.1494 107.03 67.2051 107.22 67.3164C107.409 67.4258 107.555 67.582 107.656 67.7852C107.758 67.9883 107.809 68.2188 107.809 68.4766C107.809 68.791 107.751 69.0625 107.636 69.291C107.522 69.5195 107.361 69.6953 107.152 69.8184C106.945 69.9395 106.708 70 106.44 70H104.727ZM105.787 68.4033C105.787 68.5889 105.804 68.7715 105.837 68.9512C105.87 69.1289 105.93 69.3223 106.016 69.5312H106.44C106.708 69.5312 106.913 69.4404 107.056 69.2588C107.198 69.0771 107.27 68.8145 107.27 68.4707C107.27 68.2188 107.2 68.0127 107.062 67.8525C106.925 67.6924 106.758 67.6123 106.561 67.6123C106.434 67.6123 106.309 67.6348 106.186 67.6797C106.064 67.7246 105.956 67.7842 105.86 67.8584C105.827 67.9424 105.807 68.0283 105.799 68.1162C105.791 68.2021 105.787 68.2979 105.787 68.4033ZM110.548 69.5312V67.5566H110.29C109.935 67.5566 109.657 67.6504 109.458 67.8379C109.261 68.0254 109.162 68.2881 109.162 68.626C109.162 68.9385 109.229 69.168 109.364 69.3145C109.501 69.459 109.707 69.5312 109.982 69.5312H110.548ZM111.058 70.1436C111.058 70.5518 110.937 70.8701 110.694 71.0986C110.454 71.3271 110.113 71.4414 109.672 71.4414C109.264 71.4414 108.903 71.3389 108.591 71.1338L108.831 70.7324C108.96 70.8008 109.093 70.8574 109.229 70.9023C109.366 70.9492 109.518 70.9727 109.684 70.9727C109.955 70.9727 110.168 70.8994 110.322 70.7529C110.477 70.6084 110.554 70.415 110.554 70.1729V70H109.965C109.539 70 109.209 69.8828 108.975 69.6484C108.742 69.4141 108.626 69.0752 108.626 68.6318C108.626 68.1611 108.775 67.7871 109.074 67.5098C109.373 67.2305 109.772 67.0908 110.272 67.0908H111.058V69.5312H111.55C111.569 69.5312 111.579 69.5391 111.579 69.5547V69.9707C111.579 69.9902 111.569 70 111.55 70H111.058V70.1436ZM111.494 70C111.475 70 111.465 69.9902 111.465 69.9707V69.5547C111.465 69.5391 111.475 69.5312 111.494 69.5312H112.646V67.0908H113.179V70H111.494ZM111.884 71.2012C111.79 71.2012 111.71 71.1729 111.644 71.1162C111.579 71.0596 111.547 70.9678 111.547 70.8408C111.547 70.7139 111.579 70.6221 111.644 70.5654C111.71 70.5088 111.79 70.4805 111.884 70.4805C111.985 70.4805 112.066 70.5107 112.127 70.5713C112.188 70.6338 112.218 70.7236 112.218 70.8408C112.218 70.9561 112.188 71.0449 112.127 71.1074C112.068 71.1699 111.987 71.2012 111.884 71.2012ZM112.921 71.2012C112.817 71.2012 112.735 71.1699 112.675 71.1074C112.614 71.0449 112.584 70.9561 112.584 70.8408C112.584 70.7256 112.613 70.6367 112.672 70.5742C112.732 70.5117 112.815 70.4805 112.921 70.4805C113.028 70.4805 113.111 70.5127 113.17 70.5771C113.229 70.6436 113.258 70.7314 113.258 70.8408C113.258 70.9502 113.229 71.0371 113.17 71.1016C113.111 71.168 113.028 71.2012 112.921 71.2012ZM117.403 71.4414C117.032 71.4414 116.738 71.3047 116.521 71.0312C116.305 70.7578 116.196 70.3818 116.196 69.9033C116.196 69.6572 116.218 69.4082 116.261 69.1562C116.304 68.9023 116.364 68.6797 116.442 68.4883H116.94C116.804 68.834 116.735 69.3057 116.735 69.9033C116.735 70.2451 116.804 70.5088 116.94 70.6943C117.077 70.8799 117.27 70.9727 117.518 70.9727H117.811C118.158 70.9727 118.413 70.8936 118.575 70.7354C118.737 70.5771 118.818 70.3379 118.818 70.0176V65.4414H119.328V69.9766C119.328 70.4609 119.208 70.8262 118.968 71.0723C118.728 71.3184 118.35 71.4414 117.834 71.4414H117.403ZM120.201 69.5312H121.546L120.772 66.25H121.329L122.103 69.5312H122.902V65.4414H123.436V69.5312H124.215C124.236 69.5312 124.247 69.5391 124.247 69.5547V69.9707C124.247 69.9902 124.236 70 124.215 70H120.201V69.5312ZM124.156 70C124.137 70 124.127 69.9902 124.127 69.9707V69.5547C124.127 69.5391 124.137 69.5312 124.156 69.5312H126.729C126.582 69.3848 126.456 69.0186 126.351 68.4326C126.292 68.0869 126.207 67.8447 126.096 67.7061C125.984 67.5674 125.817 67.498 125.595 67.498C125.317 67.498 125.027 67.5781 124.725 67.7383L124.517 67.3252C124.688 67.2139 124.861 67.1367 125.035 67.0938C125.211 67.0508 125.399 67.0293 125.601 67.0293C125.845 67.0293 126.049 67.0732 126.213 67.1611C126.377 67.249 126.507 67.3799 126.603 67.5537C126.7 67.7256 126.774 67.9727 126.825 68.2949C126.884 68.6523 126.949 68.9287 127.021 69.124C127.096 69.3174 127.181 69.457 127.276 69.543V70H124.156ZM125.668 66.5195C125.564 66.5195 125.482 66.4883 125.422 66.4258C125.361 66.3633 125.331 66.2744 125.331 66.1592C125.331 66.0439 125.36 65.9551 125.419 65.8926C125.479 65.8301 125.562 65.7988 125.668 65.7988C125.775 65.7988 125.858 65.832 125.917 65.8984C125.976 65.9629 126.005 66.0498 126.005 66.1592C126.005 66.2686 125.976 66.3564 125.917 66.4229C125.858 66.4873 125.775 66.5195 125.668 66.5195ZM131.302 71.4414C130.931 71.4414 130.637 71.3047 130.42 71.0312C130.203 70.7578 130.095 70.3818 130.095 69.9033C130.095 69.6572 130.116 69.4082 130.159 69.1562C130.202 68.9023 130.263 68.6797 130.341 68.4883H130.839C130.702 68.834 130.634 69.3057 130.634 69.9033C130.634 70.2451 130.702 70.5088 130.839 70.6943C130.976 70.8799 131.168 70.9727 131.416 70.9727H131.709C132.057 70.9727 132.312 70.8936 132.474 70.7354C132.636 70.5771 132.717 70.3379 132.717 70.0176V65.4414H133.227V69.9766C133.227 70.4609 133.106 70.8262 132.866 71.0723C132.626 71.3184 132.248 71.4414 131.732 71.4414H131.302ZM134.431 65.4414H134.964V69.5312H135.755C135.776 69.5312 135.787 69.5391 135.787 69.5547V69.9707C135.787 69.9902 135.776 70 135.755 70H134.431V65.4414ZM135.699 70C135.68 70 135.67 69.9902 135.67 69.9707V69.5547C135.67 69.5391 135.68 69.5312 135.699 69.5312H136.443C136.295 69.1445 136.221 68.8027 136.221 68.5059C136.221 68.1484 136.293 67.8301 136.438 67.5508C136.584 67.4277 136.752 67.3301 136.941 67.2578C137.131 67.1855 137.328 67.1494 137.533 67.1494C137.783 67.1494 138.003 67.2051 138.192 67.3164C138.382 67.4258 138.527 67.582 138.629 67.7852C138.73 67.9883 138.781 68.2188 138.781 68.4766C138.781 68.7324 138.739 68.9678 138.655 69.1826C138.741 69.3135 138.837 69.4043 138.942 69.4551C139.05 69.5059 139.19 69.5312 139.364 69.5312H139.394C139.415 69.5312 139.426 69.5391 139.426 69.5547V69.9707C139.426 69.9902 139.415 70 139.394 70H139.364C139.151 70 138.97 69.9707 138.819 69.9121C138.669 69.8535 138.524 69.7529 138.386 69.6104C138.259 69.7432 138.11 69.8418 137.94 69.9062C137.772 69.9688 137.597 70 137.413 70H135.699ZM136.76 68.4033C136.76 68.5889 136.776 68.7715 136.81 68.9512C136.843 69.1289 136.902 69.3223 136.988 69.5312H137.413C137.681 69.5312 137.886 69.4404 138.028 69.2588C138.171 69.0771 138.242 68.8145 138.242 68.4707C138.242 68.2188 138.173 68.0127 138.034 67.8525C137.897 67.6924 137.73 67.6123 137.533 67.6123C137.406 67.6123 137.281 67.6348 137.158 67.6797C137.037 67.7246 136.929 67.7842 136.833 67.8584C136.8 67.9424 136.779 68.0283 136.771 68.1162C136.764 68.2021 136.76 68.2979 136.76 68.4033ZM139.338 70C139.318 70 139.309 69.9902 139.309 69.9707V69.5547C139.309 69.5391 139.318 69.5312 139.338 69.5312H140.129V65.4414H140.662V70H139.338ZM141.866 65.4414H142.399V70H141.866V65.4414Z" fill="white"/>
</g>
</g>
<defs>
<filter id="filter0_d_109_45570" x="0" y="0" width="156" height="103" filterUnits="userSpaceOnUse" color-interpolation-filters="sRGB">
<feFlood flood-opacity="0" result="BackgroundImageFix"/>
<feColorMatrix in="SourceAlpha" type="matrix" values="0 0 0 0 0 0 0 0 0 0 0 0 0 0 0 0 0 0 127 0" result="hardAlpha"/>
<feOffset dy="4"/>
<feGaussianBlur stdDeviation="2"/>
<feComposite in2="hardAlpha" operator="out"/>
<feColorMatrix type="matrix" values="0 0 0 0 0 0 0 0 0 0 0 0 0 0 0 0 0 0 0.15 0"/>
<feBlend mode="normal" in2="BackgroundImageFix" result="effect1_dropShadow_109_45570"/>
<feBlend mode="normal" in="SourceGraphic" in2="effect1_dropShadow_109_45570" result="shape"/>
</filter>
<clipPath id="clip0_109_45570">
<rect x="4" width="148" height="95" rx="8" fill="white"/>
</clipPath>
<clipPath id="clip1_109_45570">
<rect width="81" height="81" fill="white" transform="translate(-8 18)"/>
</clipPath>
</defs>
</svg>
