<svg width="156" height="103" viewBox="0 0 156 103" fill="none" xmlns="http://www.w3.org/2000/svg">
<g filter="url(#filter0_d_109_45569)">
<g clip-path="url(#clip0_109_45569)">
<rect x="4" width="148" height="95" rx="8" fill="#CF0000"/>
<path opacity="0.5" d="M46.2501 51.6791C33.2294 51.6791 22.6758 62.2328 22.6758 75.2535C22.6758 88.2743 33.2294 98.8279 46.2501 98.8279C59.2709 98.8279 69.8245 88.2743 69.8245 75.2535C69.8245 62.2328 59.2709 51.6791 46.2501 51.6791ZM41.2686 71.0078L52.3353 72.8539C56.6148 73.566 59.7231 77.2346 59.7231 81.5715C59.7231 86.445 55.7609 90.4072 50.8874 90.4072H49.6218V93.7755H42.8853V90.4072C37.3131 90.4072 32.7805 85.8746 32.7805 80.3025H39.517C39.517 82.1587 41.029 83.6708 42.8853 83.6708H50.8874C52.045 83.6708 52.99 82.7291 52.99 81.5681C52.99 80.5354 52.2509 79.6646 51.235 79.4959L40.1684 77.6497C35.8923 76.9376 32.7839 73.269 32.7839 68.9321C32.7839 64.0586 36.7495 60.0964 41.6196 60.0964H42.8853V56.7281H49.6218V60.0964C55.1939 60.0964 59.7265 64.629 59.7265 70.2011H52.99C52.99 68.3449 51.4814 66.8329 49.6218 66.8329H41.6196C40.4586 66.8329 39.517 67.7745 39.517 68.9355C39.517 69.9683 40.2561 70.839 41.272 71.0078H41.2686ZM-11 58.5877V51.8512C-11 59.2897 0.309626 65.3209 14.2585 65.3209C15.4229 65.3209 16.567 65.2736 17.6875 65.1926C16.9281 67.3526 16.3814 69.6105 16.1283 71.9595C15.5005 71.9831 14.8997 72.0574 14.2585 72.0574C0.306252 72.0574 -11 66.0262 -11 58.5877ZM-11 31.4696C-11 24.0311 0.306252 18 14.2585 18C28.2108 18 39.517 24.0311 39.517 31.4696C39.517 38.9081 28.2074 44.9392 14.2585 44.9392C0.309626 44.9392 -11 38.9115 -11 31.4696ZM-11 44.9426V38.2061C-11 45.6446 0.309626 51.6758 14.2585 51.6758C28.2074 51.6758 39.517 45.6446 39.517 38.2061V44.9426C39.517 45.2126 39.4697 45.4725 39.4427 45.7391C32.0448 47.4401 25.6896 51.8344 21.4608 57.852C19.1759 58.2131 16.7628 58.4156 14.2585 58.4156C0.306252 58.4123 -11 52.3811 -11 44.9426ZM25.7402 97.5218C22.2944 98.4634 18.3962 99 14.2585 99C0.306252 99 -11 92.9689 -11 85.5304V78.7939C-11 86.2324 0.309626 92.2635 14.2585 92.2635C16.5501 92.2635 18.7405 92.0644 20.8499 91.7572C22.2336 93.8835 23.884 95.8106 25.7402 97.5218ZM-11 72.0574V65.3209C-11 72.7594 0.309626 78.7905 14.2585 78.7905C14.9031 78.7905 15.5208 78.7298 16.1519 78.7028C16.4151 81.0112 16.9517 83.232 17.7044 85.3549C16.5704 85.4393 15.4364 85.5236 14.2585 85.5236C0.306252 85.5304 -11 79.4959 -11 72.0574Z" fill="white"/>
<path d="M116.235 28.5586C116.274 28.5586 116.293 28.5742 116.293 28.6055V29.9414C116.293 29.9805 116.274 30 116.235 30H112.596C111.487 30 110.625 29.7422 110.012 29.2266C109.399 28.707 109.092 27.9844 109.092 27.0586C109.092 26.4688 109.233 25.9453 109.514 25.4883C109.795 25.0312 110.198 24.6797 110.721 24.4336C111.248 24.1836 111.873 24.0586 112.596 24.0586H112.93V23.4727H114.735V28.5586H116.235ZM112.948 28.5586V25.5H112.631C112.084 25.5 111.662 25.6348 111.366 25.9043C111.073 26.1738 110.926 26.5625 110.926 27.0703C110.926 27.5469 111.071 27.9141 111.36 28.1719C111.649 28.4297 112.065 28.5586 112.608 28.5586H112.948ZM111.828 22.7168C111.582 22.7168 111.387 22.6406 111.242 22.4883C111.098 22.332 111.026 22.1211 111.026 21.8555C111.026 21.5859 111.096 21.375 111.237 21.2227C111.381 21.0664 111.578 20.9883 111.828 20.9883C112.075 20.9883 112.268 21.0645 112.409 21.2168C112.549 21.3691 112.619 21.582 112.619 21.8555C112.619 22.1289 112.547 22.3418 112.403 22.4941C112.258 22.6426 112.067 22.7168 111.828 22.7168ZM113.867 22.7168C113.621 22.7168 113.426 22.6406 113.282 22.4883C113.137 22.332 113.065 22.1211 113.065 21.8555C113.065 21.5859 113.135 21.375 113.276 21.2227C113.42 21.0664 113.617 20.9883 113.867 20.9883C114.117 20.9883 114.313 21.0664 114.453 21.2227C114.594 21.375 114.664 21.5859 114.664 21.8555C114.664 22.1211 114.59 22.332 114.442 22.4883C114.297 22.6406 114.106 22.7168 113.867 22.7168ZM121.11 28.5586V25.5H120.793C120.254 25.5 119.836 25.6348 119.539 25.9043C119.242 26.1699 119.094 26.5586 119.094 27.0703C119.094 27.5469 119.237 27.9141 119.522 28.1719C119.811 28.4297 120.227 28.5586 120.77 28.5586H121.11ZM117.834 28.5586C117.448 28.1016 117.254 27.5742 117.254 26.9766C117.254 26.082 117.563 25.373 118.18 24.8496C118.797 24.3223 119.657 24.0586 120.758 24.0586H122.897V30H116.117C116.078 30 116.059 29.9805 116.059 29.9414V28.6055C116.059 28.5742 116.078 28.5586 116.117 28.5586H117.834ZM120.629 23.0273C120.379 23.0273 120.182 22.9512 120.037 22.7988C119.893 22.6426 119.821 22.4316 119.821 22.166C119.821 21.8965 119.891 21.6855 120.032 21.5332C120.176 21.377 120.375 21.2988 120.629 21.2988C120.871 21.2988 121.063 21.375 121.203 21.5273C121.348 21.6797 121.42 21.8926 121.42 22.166C121.42 22.4316 121.346 22.6426 121.198 22.7988C121.053 22.9512 120.864 23.0273 120.629 23.0273ZM128.41 28.5586C128.45 28.5586 128.469 28.5742 128.469 28.6055V29.9414C128.469 29.9805 128.45 30 128.41 30H125.123V20.8828H126.91V28.5586H128.41ZM135.934 28.5586V27.082C135.934 26.5 135.799 26.0723 135.53 25.7988C135.264 25.5215 134.852 25.3828 134.293 25.3828C133.215 25.3828 132.284 26.1289 131.498 27.6211V28.5586H135.934ZM128.293 30C128.254 30 128.235 29.9805 128.235 29.9414V28.6055C128.235 28.5742 128.254 28.5586 128.293 28.5586H129.705V24.0586H131.498V26.1621C132.229 24.6816 133.313 23.9414 134.75 23.9414C135.731 23.9414 136.471 24.2012 136.971 24.7207C137.471 25.2363 137.721 26.0352 137.721 27.1172V30H128.293ZM134.006 23.0273C133.756 23.0273 133.559 22.9512 133.414 22.7988C133.27 22.6426 133.198 22.4316 133.198 22.166C133.198 21.8965 133.268 21.6855 133.409 21.5332C133.553 21.377 133.752 21.2988 134.006 21.2988C134.248 21.2988 134.44 21.375 134.58 21.5273C134.725 21.6797 134.797 21.8926 134.797 22.166C134.797 22.4316 134.723 22.6426 134.575 22.7988C134.43 22.9512 134.241 23.0273 134.006 23.0273ZM139.83 20.8828H141.617V30H139.83V20.8828ZM82.8069 47C82.0687 47 81.4847 46.7852 81.055 46.3555C80.6292 45.9258 80.4163 45.3359 80.4163 44.5859C80.4163 44.2852 80.4515 43.9648 80.5218 43.625C80.5921 43.2812 80.6859 42.9902 80.803 42.752H82.3851C82.264 43.2715 82.2034 43.7949 82.2034 44.3223C82.2034 44.6934 82.3069 44.9922 82.514 45.2188C82.721 45.4453 82.9944 45.5586 83.3343 45.5586H87.2308V41.0586H89.0237V47H82.8069ZM83.68 41.0527C83.4339 41.0527 83.2386 40.9766 83.0941 40.8242C82.9495 40.668 82.8773 40.457 82.8773 40.1914C82.8773 39.9219 82.9476 39.7109 83.0882 39.5586C83.2327 39.4023 83.43 39.3242 83.68 39.3242C83.9261 39.3242 84.1194 39.4004 84.2601 39.5527C84.4007 39.7051 84.471 39.918 84.471 40.1914C84.471 40.4648 84.3987 40.6777 84.2542 40.8301C84.1097 40.9785 83.9183 41.0527 83.68 41.0527ZM85.7191 41.0527C85.473 41.0527 85.2776 40.9766 85.1331 40.8242C84.9886 40.668 84.9163 40.457 84.9163 40.1914C84.9163 39.9219 84.9866 39.7109 85.1273 39.5586C85.2718 39.4023 85.4691 39.3242 85.7191 39.3242C85.9691 39.3242 86.1644 39.4023 86.305 39.5586C86.4456 39.7109 86.5159 39.9219 86.5159 40.1914C86.5159 40.457 86.4417 40.668 86.2933 40.8242C86.1487 40.9766 85.9573 41.0527 85.7191 41.0527ZM94.5316 45.5586C94.5706 45.5586 94.5901 45.5742 94.5901 45.6055V46.9414C94.5901 46.9805 94.5706 47 94.5316 47H91.2444V37.8828H93.0316V45.5586H94.5316ZM99.4066 45.5586V42.5H99.0901C98.5511 42.5 98.1331 42.6348 97.8362 42.9043C97.5394 43.1699 97.3909 43.5586 97.3909 44.0703C97.3909 44.5469 97.5335 44.9141 97.8187 45.1719C98.1077 45.4297 98.5237 45.5586 99.0667 45.5586H99.4066ZM96.1312 45.5586C95.7444 45.1016 95.5511 44.5742 95.5511 43.9766C95.5511 43.082 95.8597 42.373 96.4769 41.8496C97.0941 41.3223 97.9534 41.0586 99.055 41.0586H101.194V47H94.4144C94.3753 47 94.3558 46.9805 94.3558 46.9414V45.6055C94.3558 45.5742 94.3753 45.5586 94.4144 45.5586H96.1312ZM98.9261 40.0273C98.6761 40.0273 98.4788 39.9512 98.3343 39.7988C98.1898 39.6426 98.1175 39.4316 98.1175 39.166C98.1175 38.8965 98.1878 38.6855 98.3284 38.5332C98.473 38.377 98.6722 38.2988 98.9261 38.2988C99.1683 38.2988 99.3597 38.375 99.5003 38.5273C99.6448 38.6797 99.7171 38.8926 99.7171 39.166C99.7171 39.4316 99.6429 39.6426 99.4944 39.7988C99.3499 39.9512 99.1605 40.0273 98.9261 40.0273ZM105.553 49.8828C105.01 49.8828 104.539 49.8398 104.141 49.7539C103.746 49.6719 103.366 49.5215 102.998 49.3027L103.696 47.9961C104.02 48.1641 104.326 48.2812 104.616 48.3477C104.905 48.418 105.205 48.4531 105.518 48.4531C105.971 48.4531 106.321 48.3281 106.567 48.0781C106.813 47.832 106.936 47.4922 106.936 47.0586V47H105.746C104.891 47 104.233 46.7578 103.772 46.2734C103.311 45.7891 103.08 45.0996 103.08 44.2051C103.08 43.5723 103.239 43.0176 103.555 42.541C103.871 42.0605 104.319 41.6934 104.897 41.4395C105.475 41.1855 106.143 41.0586 106.901 41.0586H108.723V47.0352C108.723 47.9453 108.446 48.6465 107.891 49.1387C107.34 49.6348 106.561 49.8828 105.553 49.8828ZM106.936 45.5586V42.5H106.549C106.037 42.5 105.637 42.6445 105.348 42.9336C105.063 43.2227 104.92 43.6309 104.92 44.1582C104.92 44.6387 105.018 44.9922 105.213 45.2188C105.409 45.4453 105.707 45.5586 106.11 45.5586H106.936ZM115.537 45.5586C115.576 45.5586 115.596 45.5742 115.596 45.6055V46.9414C115.596 46.9805 115.576 47 115.537 47H113.979V47.1934C113.979 48.0176 113.75 48.6719 113.293 49.1562C112.84 49.6406 112.233 49.8828 111.471 49.8828C111.061 49.8828 110.684 49.834 110.34 49.7363C110 49.6387 109.641 49.4629 109.262 49.209L109.983 48.043C110.194 48.1758 110.379 48.2676 110.539 48.3184C110.703 48.3691 110.899 48.3945 111.125 48.3945C111.446 48.3945 111.703 48.2715 111.899 48.0254C112.094 47.7832 112.192 47.4766 112.192 47.1055V41.0586H113.979V45.5586H115.537ZM115.426 47C115.387 47 115.367 46.9805 115.367 46.9414V45.6055C115.367 45.5742 115.387 45.5586 115.426 45.5586H116.838V41.0586H118.631V43.1621C119.362 41.6816 120.446 40.9414 121.883 40.9414C122.864 40.9414 123.604 41.2012 124.104 41.7207C124.604 42.2363 124.854 43.0352 124.854 44.1172V45.5586H126.418C126.457 45.5586 126.477 45.5742 126.477 45.6055V46.9414C126.477 46.9805 126.457 47 126.418 47H115.426ZM123.067 45.5586V44.082C123.067 43.5 122.932 43.0723 122.662 42.7988C122.397 42.5215 121.985 42.3828 121.426 42.3828C120.348 42.3828 119.416 43.1289 118.631 44.6211V45.5586H123.067ZM127.655 45.5586C127.44 45.0664 127.332 44.5156 127.332 43.9062C127.332 43.5586 127.391 43.1836 127.508 42.7812C127.625 42.3789 127.77 42.0332 127.942 41.7441C128.328 41.5215 128.739 41.3516 129.172 41.2344C129.61 41.1172 129.992 41.0586 130.321 41.0586C130.867 41.0586 131.364 41.1758 131.809 41.4102C132.258 41.6445 132.606 41.9766 132.852 42.4062C133.098 42.832 133.221 43.3281 133.221 43.8945C133.221 44.332 133.147 44.7441 132.998 45.1309C133.143 45.2871 133.307 45.3984 133.491 45.4648C133.678 45.5273 133.912 45.5586 134.194 45.5586H134.258C134.297 45.5586 134.317 45.5742 134.317 45.6055V46.9414C134.317 46.9805 134.297 47 134.258 47H134.194C133.772 47 133.405 46.9414 133.092 46.8242C132.784 46.7031 132.491 46.4941 132.213 46.1973C131.909 46.4629 131.559 46.6641 131.164 46.8008C130.77 46.9336 130.364 47 129.946 47H126.301C126.262 47 126.242 46.9805 126.242 46.9414V45.6055C126.242 45.5742 126.262 45.5586 126.301 45.5586H127.655ZM128.991 44.1582C128.991 44.5645 129.082 45.0312 129.266 45.5586H129.717C130.201 45.5586 130.606 45.3965 130.93 45.0723C131.258 44.748 131.422 44.3555 131.422 43.8945C131.422 43.4688 131.319 43.1309 131.112 42.8809C130.905 42.627 130.629 42.5 130.285 42.5C129.926 42.5 129.553 42.6113 129.166 42.834C129.049 43.2559 128.991 43.6973 128.991 44.1582ZM134.141 47C134.102 47 134.082 46.9805 134.082 46.9414V45.6055C134.082 45.5742 134.102 45.5586 134.141 45.5586H135.641V37.8828H137.428V47H134.141ZM139.83 37.8828H141.617V47H139.83V37.8828Z" fill="white"/>
<path d="M98.973 62C98.9671 62.4746 98.8441 62.833 98.6038 63.0752C98.3636 63.3193 97.9886 63.4414 97.4788 63.4414H97.0482C96.6732 63.4414 96.3782 63.3115 96.1634 63.0518C95.9485 62.792 95.8411 62.4395 95.8411 61.9941C95.8411 61.5156 95.9232 61.0732 96.0872 60.667H96.5853C96.4485 61.0127 96.3802 61.4434 96.3802 61.959C96.3802 62.2832 96.4476 62.5332 96.5823 62.709C96.7171 62.8848 96.9105 62.9727 97.1624 62.9727H97.4554C97.803 62.9727 98.0579 62.8936 98.22 62.7354C98.3821 62.5771 98.4632 62.3359 98.4632 62.0117V59.0908H98.973V61.5312H99.6321C99.6536 61.5312 99.6644 61.5391 99.6644 61.5547V61.9707C99.6644 61.9902 99.6536 62 99.6321 62H98.973ZM97.4202 59.0879C97.3167 59.0879 97.2347 59.0566 97.1741 58.9941C97.1136 58.9316 97.0833 58.8428 97.0833 58.7275C97.0833 58.6123 97.1126 58.5234 97.1712 58.4609C97.2318 58.3984 97.3148 58.3672 97.4202 58.3672C97.5276 58.3672 97.6107 58.4004 97.6693 58.4668C97.7278 58.5312 97.7571 58.6182 97.7571 58.7275C97.7571 58.8369 97.7278 58.9248 97.6693 58.9912C97.6107 59.0557 97.5276 59.0879 97.4202 59.0879ZM99.5765 62C99.5569 62 99.5472 61.9902 99.5472 61.9707V61.5547C99.5472 61.5391 99.5569 61.5312 99.5765 61.5312H100.321C100.172 61.1445 100.098 60.8027 100.098 60.5059C100.098 60.1484 100.17 59.8301 100.315 59.5508C100.461 59.4277 100.629 59.3301 100.819 59.2578C101.008 59.1855 101.205 59.1494 101.41 59.1494C101.66 59.1494 101.88 59.2051 102.07 59.3164C102.259 59.4258 102.405 59.582 102.506 59.7852C102.608 59.9883 102.659 60.2188 102.659 60.4766C102.659 60.791 102.601 61.0625 102.486 61.291C102.372 61.5195 102.211 61.6953 102.002 61.8184C101.795 61.9395 101.558 62 101.29 62H99.5765ZM100.637 60.4033C100.637 60.5889 100.654 60.7715 100.687 60.9512C100.72 61.1289 100.78 61.3223 100.866 61.5312H101.29C101.558 61.5312 101.763 61.4404 101.906 61.2588C102.048 61.0771 102.119 60.8145 102.119 60.4707C102.119 60.2188 102.05 60.0127 101.911 59.8525C101.775 59.6924 101.608 59.6123 101.41 59.6123C101.284 59.6123 101.159 59.6348 101.035 59.6797C100.914 59.7246 100.806 59.7842 100.71 59.8584C100.677 59.9424 100.657 60.0283 100.649 60.1162C100.641 60.2021 100.637 60.2979 100.637 60.4033ZM106.602 62C106.256 62 105.983 61.8965 105.782 61.6895C105.58 61.4805 105.48 61.1963 105.48 60.8369C105.48 60.7041 105.493 60.5508 105.521 60.377C105.55 60.2031 105.586 60.0557 105.629 59.9346H106.11C106.049 60.2236 106.019 60.5098 106.019 60.793C106.019 61.0117 106.071 61.1895 106.174 61.3262C106.278 61.4629 106.414 61.5312 106.584 61.5312H108.738V59.0908H109.247V61.5312H110.047C110.067 61.5312 110.076 61.5391 110.076 61.5547V61.9707C110.076 61.9902 110.067 62 110.047 62H106.602ZM106.842 59.0879C106.748 59.0879 106.668 59.0596 106.602 59.0029C106.537 58.9463 106.505 58.8545 106.505 58.7275C106.505 58.6006 106.537 58.5088 106.602 58.4521C106.668 58.3955 106.748 58.3672 106.842 58.3672C106.944 58.3672 107.025 58.3984 107.085 58.4609C107.146 58.5215 107.176 58.6104 107.176 58.7275C107.176 58.8428 107.146 58.9316 107.085 58.9941C107.027 59.0566 106.946 59.0879 106.842 59.0879ZM107.879 59.0879C107.776 59.0879 107.694 59.0566 107.633 58.9941C107.573 58.9316 107.542 58.8428 107.542 58.7275C107.542 58.6123 107.572 58.5234 107.63 58.4609C107.691 58.3984 107.774 58.3672 107.879 58.3672C107.987 58.3672 108.07 58.4004 108.128 58.4668C108.187 58.5312 108.216 58.6182 108.216 58.7275C108.216 58.8369 108.187 58.9248 108.128 58.9912C108.07 59.0557 107.987 59.0879 107.879 59.0879ZM112.508 61.5312V59.5566H112.25C111.893 59.5566 111.616 59.6514 111.418 59.8408C111.221 60.0283 111.122 60.29 111.122 60.626C111.122 61.2295 111.396 61.5312 111.943 61.5312H112.508ZM109.989 62C109.969 62 109.959 61.9902 109.959 61.9707V61.5547C109.959 61.5391 109.969 61.5312 109.989 61.5312H110.9C110.798 61.416 110.721 61.2764 110.668 61.1123C110.616 60.9482 110.589 60.7861 110.589 60.626C110.589 60.1494 110.737 59.7744 111.032 59.501C111.328 59.2275 111.729 59.0908 112.233 59.0908H113.018V61.5312H113.654C113.665 61.5312 113.674 61.5361 113.68 61.5459L113.683 61.5605V61.9766C113.683 61.9922 113.673 62 113.654 62H109.989ZM111.512 58.5195C111.418 58.5195 111.338 58.4912 111.272 58.4346C111.207 58.3779 111.175 58.2861 111.175 58.1592C111.175 58.0322 111.207 57.9404 111.272 57.8838C111.338 57.8271 111.418 57.7988 111.512 57.7988C111.614 57.7988 111.695 57.8301 111.755 57.8926C111.816 57.9531 111.846 58.042 111.846 58.1592C111.846 58.2744 111.816 58.3633 111.755 58.4258C111.697 58.4883 111.616 58.5195 111.512 58.5195ZM112.549 58.5195C112.446 58.5195 112.364 58.4883 112.303 58.4258C112.242 58.3633 112.212 58.2744 112.212 58.1592C112.212 58.0439 112.242 57.9551 112.3 57.8926C112.361 57.8301 112.444 57.7988 112.549 57.7988C112.657 57.7988 112.74 57.832 112.798 57.8984C112.857 57.9629 112.886 58.0498 112.886 58.1592C112.886 58.2686 112.857 58.3564 112.798 58.4229C112.74 58.4873 112.657 58.5195 112.549 58.5195ZM116.117 61.5312V59.5566H115.86C115.502 59.5566 115.225 59.6514 115.028 59.8408C114.83 60.0283 114.732 60.29 114.732 60.626C114.732 61.2295 115.005 61.5312 115.552 61.5312H116.117ZM113.598 62C113.578 62 113.569 61.9902 113.569 61.9707V61.5547C113.569 61.5391 113.578 61.5312 113.598 61.5312H114.509C114.408 61.416 114.33 61.2764 114.278 61.1123C114.225 60.9482 114.199 60.7861 114.199 60.626C114.199 60.1494 114.346 59.7744 114.641 59.501C114.938 59.2275 115.338 59.0908 115.842 59.0908H116.627V61.5312H117.263C117.275 61.5312 117.284 61.5361 117.289 61.5459L117.292 61.5605V61.9766C117.292 61.9922 117.283 62 117.263 62H113.598ZM115.54 58.5195C115.437 58.5195 115.355 58.4883 115.294 58.4258C115.234 58.3633 115.203 58.2744 115.203 58.1592C115.203 58.0439 115.233 57.9551 115.291 57.8926C115.352 57.8301 115.435 57.7988 115.54 57.7988C115.648 57.7988 115.731 57.832 115.789 57.8984C115.848 57.9629 115.877 58.0498 115.877 58.1592C115.877 58.2686 115.848 58.3564 115.789 58.4229C115.731 58.4873 115.648 58.5195 115.54 58.5195ZM117.207 62C117.188 62 117.178 61.9902 117.178 61.9707V61.5547C117.178 61.5391 117.188 61.5312 117.207 61.5312H117.998V59.0908H118.532V62H117.207ZM118.262 58.5195C118.159 58.5195 118.076 58.4883 118.016 58.4258C117.955 58.3633 117.925 58.2744 117.925 58.1592C117.925 58.0439 117.954 57.9551 118.013 57.8926C118.074 57.8301 118.157 57.7988 118.262 57.7988C118.369 57.7988 118.452 57.832 118.511 57.8984C118.57 57.9629 118.599 58.0498 118.599 58.1592C118.599 58.2686 118.57 58.3564 118.511 58.4229C118.452 58.4873 118.369 58.5195 118.262 58.5195ZM119.642 57.4414H120.175V62H119.642V57.4414ZM123.415 57.4414H123.949V61.5312H124.74C124.761 61.5312 124.772 61.5391 124.772 61.5547V61.9707C124.772 61.9902 124.761 62 124.74 62H123.415V57.4414ZM124.684 62C124.664 62 124.655 61.9902 124.655 61.9707V61.5547C124.655 61.5391 124.664 61.5312 124.684 61.5312H125.428C125.28 61.1445 125.205 60.8027 125.205 60.5059C125.205 60.1484 125.278 59.8301 125.422 59.5508C125.569 59.4277 125.737 59.3301 125.926 59.2578C126.116 59.1855 126.313 59.1494 126.518 59.1494C126.768 59.1494 126.988 59.2051 127.177 59.3164C127.367 59.4258 127.512 59.582 127.614 59.7852C127.715 59.9883 127.766 60.2188 127.766 60.4766C127.766 60.791 127.708 61.0625 127.593 61.291C127.48 61.5195 127.319 61.6953 127.11 61.8184C126.903 61.9395 126.665 62 126.398 62H124.684ZM125.744 60.4033C125.744 60.5889 125.761 60.7715 125.794 60.9512C125.827 61.1289 125.887 61.3223 125.973 61.5312H126.398C126.665 61.5312 126.87 61.4404 127.013 61.2588C127.156 61.0771 127.227 60.8145 127.227 60.4707C127.227 60.2188 127.158 60.0127 127.019 59.8525C126.882 59.6924 126.715 59.6123 126.518 59.6123C126.391 59.6123 126.266 59.6348 126.143 59.6797C126.022 59.7246 125.913 59.7842 125.818 59.8584C125.784 59.9424 125.764 60.0283 125.756 60.1162C125.748 60.2021 125.744 60.2979 125.744 60.4033ZM135.248 61.5312V59.5566H134.991C134.635 59.5566 134.358 59.6494 134.159 59.835C133.961 60.0205 133.863 60.2822 133.863 60.6201C133.863 61.2275 134.137 61.5312 134.686 61.5312H135.248ZM131.709 62C131.364 62 131.09 61.8965 130.889 61.6895C130.688 61.4805 130.587 61.1963 130.587 60.8369C130.587 60.7041 130.601 60.5508 130.628 60.377C130.658 60.2031 130.694 60.0557 130.737 59.9346H131.217C131.157 60.2236 131.126 60.5098 131.126 60.793C131.126 61.0117 131.178 61.1895 131.282 61.3262C131.385 61.4629 131.522 61.5312 131.692 61.5312H133.643C133.549 61.4297 133.473 61.2959 133.414 61.1299C133.358 60.9639 133.329 60.7959 133.329 60.626C133.329 60.1572 133.476 59.7842 133.769 59.5068C134.064 59.2295 134.465 59.0908 134.973 59.0908H135.758V61.5312H136.42C136.44 61.5312 136.45 61.5391 136.45 61.5547V61.9707C136.45 61.9902 136.44 62 136.42 62H131.709ZM134.624 58.5195C134.521 58.5195 134.439 58.4883 134.378 58.4258C134.318 58.3633 134.287 58.2744 134.287 58.1592C134.287 58.0439 134.317 57.9551 134.375 57.8926C134.436 57.8301 134.519 57.7988 134.624 57.7988C134.732 57.7988 134.815 57.832 134.873 57.8984C134.932 57.9629 134.961 58.0498 134.961 58.1592C134.961 58.2686 134.932 58.3564 134.873 58.4229C134.815 58.4873 134.732 58.5195 134.624 58.5195ZM136.362 62C136.342 62 136.332 61.9902 136.332 61.9707V61.5547C136.332 61.5391 136.342 61.5312 136.362 61.5312H137.094V59.2695H137.604V60.3799C137.791 59.9326 138.027 59.5957 138.31 59.3691C138.593 59.1426 138.911 59.0293 139.265 59.0293C139.718 59.0293 140.06 59.1523 140.29 59.3984C140.523 59.6445 140.639 60.0293 140.639 60.5527V62H136.362ZM140.129 61.5312V60.5791C140.129 60.21 140.048 59.9385 139.886 59.7646C139.726 59.5908 139.483 59.5039 139.157 59.5039C138.541 59.5039 138.024 60.0156 137.604 61.0391V61.5312H140.129ZM139.098 58.5195C138.994 58.5195 138.912 58.4883 138.852 58.4258C138.791 58.3633 138.761 58.2744 138.761 58.1592C138.761 58.0439 138.79 57.9551 138.849 57.8926C138.909 57.8301 138.992 57.7988 139.098 57.7988C139.205 57.7988 139.288 57.832 139.347 57.8984C139.406 57.9629 139.435 58.0498 139.435 58.1592C139.435 58.2686 139.406 58.3564 139.347 58.4229C139.288 58.4873 139.205 58.5195 139.098 58.5195ZM141.691 57.4414H142.224V62H141.691V57.4414ZM101.164 70C100.801 70 100.523 69.9072 100.329 69.7217C100.138 69.5361 100.042 69.2705 100.042 68.9248C100.042 68.6592 100.092 68.3896 100.192 68.1162H100.643C100.582 68.4014 100.552 68.6572 100.552 68.8838C100.552 69.085 100.605 69.2432 100.71 69.3584C100.818 69.4736 100.963 69.5312 101.147 69.5312H103.3V65.4414H103.81V69.5312H104.61C104.629 69.5312 104.639 69.5391 104.639 69.5547V69.9707C104.639 69.9902 104.629 70 104.61 70H101.164ZM101.369 67.8584L101.651 67.8174C101.51 67.7256 101.44 67.5996 101.44 67.4395C101.44 67.2695 101.495 67.1367 101.607 67.041C101.718 66.9453 101.867 66.8975 102.052 66.8975C102.201 66.8975 102.332 66.9277 102.448 66.9883L102.36 67.2578C102.276 67.209 102.175 67.1846 102.058 67.1846C101.97 67.1846 101.896 67.21 101.835 67.2607C101.777 67.3096 101.747 67.3867 101.747 67.4922C101.747 67.5605 101.764 67.6191 101.797 67.668C101.832 67.7148 101.875 67.75 101.926 67.7734C101.973 67.7637 102.071 67.749 102.219 67.7295C102.367 67.708 102.47 67.6973 102.527 67.6973V67.9902C102.493 67.9902 102.406 67.998 102.263 68.0137C102.12 68.0273 102.015 68.0391 101.947 68.0488C101.601 68.0977 101.409 68.126 101.369 68.1338V67.8584ZM104.551 70C104.532 70 104.522 69.9902 104.522 69.9707V69.5547C104.522 69.5391 104.532 69.5312 104.551 69.5312H105.295C105.147 69.1445 105.073 68.8027 105.073 68.5059C105.073 68.1484 105.145 67.8301 105.289 67.5508C105.436 67.4277 105.604 67.3301 105.793 67.2578C105.983 67.1855 106.18 67.1494 106.385 67.1494C106.635 67.1494 106.855 67.2051 107.044 67.3164C107.234 67.4258 107.379 67.582 107.481 67.7852C107.582 67.9883 107.633 68.2188 107.633 68.4766C107.633 68.791 107.576 69.0625 107.46 69.291C107.347 69.5195 107.186 69.6953 106.977 69.8184C106.77 69.9395 106.533 70 106.265 70H104.551ZM105.612 68.4033C105.612 68.5889 105.628 68.7715 105.661 68.9512C105.695 69.1289 105.754 69.3223 105.84 69.5312H106.265C106.533 69.5312 106.738 69.4404 106.88 69.2588C107.023 69.0771 107.094 68.8145 107.094 68.4707C107.094 68.2188 107.025 68.0127 106.886 67.8525C106.749 67.6924 106.582 67.6123 106.385 67.6123C106.258 67.6123 106.133 67.6348 106.01 67.6797C105.889 67.7246 105.781 67.7842 105.685 67.8584C105.652 67.9424 105.631 68.0283 105.623 68.1162C105.616 68.2021 105.612 68.2979 105.612 68.4033ZM110.372 69.5312V67.5566H110.115C109.759 67.5566 109.482 67.6504 109.283 67.8379C109.085 68.0254 108.987 68.2881 108.987 68.626C108.987 68.9385 109.054 69.168 109.189 69.3145C109.326 69.459 109.532 69.5312 109.807 69.5312H110.372ZM110.882 70.1436C110.882 70.5518 110.761 70.8701 110.519 71.0986C110.279 71.3271 109.938 71.4414 109.496 71.4414C109.088 71.4414 108.728 71.3389 108.415 71.1338L108.656 70.7324C108.784 70.8008 108.917 70.8574 109.054 70.9023C109.191 70.9492 109.342 70.9727 109.508 70.9727C109.78 70.9727 109.992 70.8994 110.147 70.7529C110.301 70.6084 110.378 70.415 110.378 70.1729V70H109.789C109.364 70 109.034 69.8828 108.799 69.6484C108.567 69.4141 108.451 69.0752 108.451 68.6318C108.451 68.1611 108.6 67.7871 108.899 67.5098C109.198 67.2305 109.597 67.0908 110.097 67.0908H110.882V69.5312H111.374C111.394 69.5312 111.404 69.5391 111.404 69.5547V69.9707C111.404 69.9902 111.394 70 111.374 70H110.882V70.1436ZM111.319 70C111.299 70 111.289 69.9902 111.289 69.9707V69.5547C111.289 69.5391 111.299 69.5312 111.319 69.5312H112.47V67.0908H113.003V70H111.319ZM111.708 71.2012C111.615 71.2012 111.534 71.1729 111.468 71.1162C111.404 71.0596 111.371 70.9678 111.371 70.8408C111.371 70.7139 111.404 70.6221 111.468 70.5654C111.534 70.5088 111.615 70.4805 111.708 70.4805C111.81 70.4805 111.891 70.5107 111.951 70.5713C112.012 70.6338 112.042 70.7236 112.042 70.8408C112.042 70.9561 112.012 71.0449 111.951 71.1074C111.893 71.1699 111.812 71.2012 111.708 71.2012ZM112.745 71.2012C112.642 71.2012 112.56 71.1699 112.499 71.1074C112.439 71.0449 112.409 70.9561 112.409 70.8408C112.409 70.7256 112.438 70.6367 112.496 70.5742C112.557 70.5117 112.64 70.4805 112.745 70.4805C112.853 70.4805 112.936 70.5127 112.994 70.5771C113.053 70.6436 113.082 70.7314 113.082 70.8408C113.082 70.9502 113.053 71.0371 112.994 71.1016C112.936 71.168 112.853 71.2012 112.745 71.2012ZM117.228 71.4414C116.857 71.4414 116.563 71.3047 116.346 71.0312C116.129 70.7578 116.021 70.3818 116.021 69.9033C116.021 69.6572 116.042 69.4082 116.085 69.1562C116.128 68.9023 116.189 68.6797 116.267 68.4883H116.765C116.628 68.834 116.56 69.3057 116.56 69.9033C116.56 70.2451 116.628 70.5088 116.765 70.6943C116.902 70.8799 117.094 70.9727 117.342 70.9727H117.635C117.983 70.9727 118.238 70.8936 118.4 70.7354C118.562 70.5771 118.643 70.3379 118.643 70.0176V65.4414H119.153V69.9766C119.153 70.4609 119.033 70.8262 118.792 71.0723C118.552 71.3184 118.174 71.4414 117.659 71.4414H117.228ZM120.026 69.5312H121.37L120.597 66.25H121.154L121.927 69.5312H122.727V65.4414H123.26V69.5312H124.039C124.061 69.5312 124.072 69.5391 124.072 69.5547V69.9707C124.072 69.9902 124.061 70 124.039 70H120.026V69.5312ZM123.981 70C123.961 70 123.951 69.9902 123.951 69.9707V69.5547C123.951 69.5391 123.961 69.5312 123.981 69.5312H126.553C126.407 69.3848 126.281 69.0186 126.175 68.4326C126.117 68.0869 126.032 67.8447 125.92 67.7061C125.809 67.5674 125.642 67.498 125.419 67.498C125.142 67.498 124.852 67.5781 124.549 67.7383L124.341 67.3252C124.513 67.2139 124.686 67.1367 124.86 67.0938C125.035 67.0508 125.224 67.0293 125.425 67.0293C125.669 67.0293 125.873 67.0732 126.037 67.1611C126.201 67.249 126.331 67.3799 126.427 67.5537C126.525 67.7256 126.599 67.9727 126.65 68.2949C126.708 68.6523 126.774 68.9287 126.846 69.124C126.92 69.3174 127.005 69.457 127.101 69.543V70H123.981ZM125.492 66.5195C125.389 66.5195 125.307 66.4883 125.246 66.4258C125.186 66.3633 125.156 66.2744 125.156 66.1592C125.156 66.0439 125.185 65.9551 125.243 65.8926C125.304 65.8301 125.387 65.7988 125.492 65.7988C125.6 65.7988 125.683 65.832 125.742 65.8984C125.8 65.9629 125.829 66.0498 125.829 66.1592C125.829 66.2686 125.8 66.3564 125.742 66.4229C125.683 66.4873 125.6 66.5195 125.492 66.5195ZM131.126 71.4414C130.755 71.4414 130.461 71.3047 130.244 71.0312C130.028 70.7578 129.919 70.3818 129.919 69.9033C129.919 69.6572 129.941 69.4082 129.984 69.1562C130.027 68.9023 130.087 68.6797 130.165 68.4883H130.663C130.527 68.834 130.458 69.3057 130.458 69.9033C130.458 70.2451 130.527 70.5088 130.663 70.6943C130.8 70.8799 130.992 70.9727 131.241 70.9727H131.534C131.881 70.9727 132.136 70.8936 132.298 70.7354C132.46 70.5771 132.541 70.3379 132.541 70.0176V65.4414H133.051V69.9766C133.051 70.4609 132.931 70.8262 132.691 71.0723C132.451 71.3184 132.073 71.4414 131.557 71.4414H131.126ZM134.255 65.4414H134.788V69.5312H135.579C135.601 69.5312 135.612 69.5391 135.612 69.5547V69.9707C135.612 69.9902 135.601 70 135.579 70H134.255V65.4414ZM135.524 70C135.504 70 135.494 69.9902 135.494 69.9707V69.5547C135.494 69.5391 135.504 69.5312 135.524 69.5312H136.268C136.119 69.1445 136.045 68.8027 136.045 68.5059C136.045 68.1484 136.117 67.8301 136.262 67.5508C136.409 67.4277 136.576 67.3301 136.766 67.2578C136.955 67.1855 137.153 67.1494 137.358 67.1494C137.608 67.1494 137.827 67.2051 138.017 67.3164C138.206 67.4258 138.352 67.582 138.453 67.7852C138.555 67.9883 138.606 68.2188 138.606 68.4766C138.606 68.7324 138.564 68.9678 138.48 69.1826C138.566 69.3135 138.661 69.4043 138.767 69.4551C138.874 69.5059 139.015 69.5312 139.189 69.5312H139.218C139.24 69.5312 139.25 69.5391 139.25 69.5547V69.9707C139.25 69.9902 139.24 70 139.218 70H139.189C138.976 70 138.794 69.9707 138.644 69.9121C138.493 69.8535 138.349 69.7529 138.21 69.6104C138.083 69.7432 137.935 69.8418 137.765 69.9062C137.597 69.9688 137.421 70 137.238 70H135.524ZM136.584 68.4033C136.584 68.5889 136.601 68.7715 136.634 68.9512C136.667 69.1289 136.727 69.3223 136.813 69.5312H137.238C137.505 69.5312 137.71 69.4404 137.853 69.2588C137.995 69.0771 138.067 68.8145 138.067 68.4707C138.067 68.2188 137.997 68.0127 137.859 67.8525C137.722 67.6924 137.555 67.6123 137.358 67.6123C137.231 67.6123 137.106 67.6348 136.983 67.6797C136.862 67.7246 136.753 67.7842 136.658 67.8584C136.624 67.9424 136.604 68.0283 136.596 68.1162C136.588 68.2021 136.584 68.2979 136.584 68.4033ZM139.162 70C139.143 70 139.133 69.9902 139.133 69.9707V69.5547C139.133 69.5391 139.143 69.5312 139.162 69.5312H139.953V65.4414H140.487V70H139.162ZM141.691 65.4414H142.224V70H141.691V65.4414Z" fill="white"/>
</g>
</g>
<defs>
<filter id="filter0_d_109_45569" x="0" y="0" width="156" height="103" filterUnits="userSpaceOnUse" color-interpolation-filters="sRGB">
<feFlood flood-opacity="0" result="BackgroundImageFix"/>
<feColorMatrix in="SourceAlpha" type="matrix" values="0 0 0 0 0 0 0 0 0 0 0 0 0 0 0 0 0 0 127 0" result="hardAlpha"/>
<feOffset dy="4"/>
<feGaussianBlur stdDeviation="2"/>
<feComposite in2="hardAlpha" operator="out"/>
<feColorMatrix type="matrix" values="0 0 0 0 0 0 0 0 0 0 0 0 0 0 0 0 0 0 0.15 0"/>
<feBlend mode="normal" in2="BackgroundImageFix" result="effect1_dropShadow_109_45569"/>
<feBlend mode="normal" in="SourceGraphic" in2="effect1_dropShadow_109_45569" result="shape"/>
</filter>
<clipPath id="clip0_109_45569">
<rect x="4" width="148" height="95" rx="8" fill="white"/>
</clipPath>
</defs>
</svg>
